<?xml version="1.0" encoding="UTF-8"?>
<svg width="211px" height="42px" viewBox="0 0 211 42" version="1.1" xmlns="http://www.w3.org/2000/svg" xmlns:xlink="http://www.w3.org/1999/xlink">
    <!-- Generator: Sketch 45 (43475) - http://www.bohemiancoding.com/sketch -->
    <title>Logo-corptape</title>
    <desc>Created with Sketch.</desc>
    <defs></defs>
    <g id="Design" stroke="none" stroke-width="1" fill="none" fill-rule="evenodd">
        <g id="Homepage" transform="translate(-124.000000, -42.000000)" fill="#FFFFFF">
            <g id="Nav-bar">
                <g id="Logo-corptape" transform="translate(124.000000, 42.000000)">
                    <path d="M4.26005861,12.4730897 L0.753730345,11.1839677 C-0.732149124,16.0456231 -0.0065735903,21.266259 2.80146574,25.2273794 L5.84268148,23.095702 C3.73665198,20.1239365 3.18719906,16.1911891 4.26005861,12.4730897" id="Fill-1"></path>
                    <path d="M6.15201231,8.46139133 C7.73215459,6.15824221 9.95229169,4.41145101 12.5048292,3.53435459 L11.2893352,0.0358377626 C7.77308449,1.24477517 4.75915535,3.71322798 2.71762146,6.94528513 L6.15201231,8.46139133 Z" id="Fill-4"></path>
                    <path d="M11.8877799,27.255927 C9.68872793,25.0107575 8.58858178,22.0315904 8.58858178,18.3184255 C8.58858178,14.6052606 9.68872793,11.6260934 11.8877799,9.38092392 C14.0868319,7.13575445 16.9382818,6.01316972 20.4396488,6.01316972 C23.3617958,6.01316972 25.8076675,6.71879441 27.7760237,8.12881018 C29.7431396,9.54005956 31.0603382,11.5397407 31.7263793,14.1303209 L25.127983,14.1303209 C24.346594,12.1442094 22.7838159,11.1511537 20.4396488,11.1511537 C18.6747018,11.1511537 17.2917673,11.7926307 16.294566,13.0731175 C15.2961245,14.3536042 14.7962836,16.101629 14.7962836,18.3184255 C14.7962836,20.5352219 15.2961245,22.2844803 16.294566,23.5649671 C17.2917673,24.8454539 18.6747018,25.4856972 20.4396488,25.4856972 C22.755289,25.4856972 24.3168268,24.4790718 25.127983,22.4633537 L31.7263793,22.4633537 C31.0318113,24.9675812 29.6922873,26.9536927 27.7115281,28.4216881 C25.7282883,29.8896835 23.304742,30.6236812 20.4396488,30.6236812 C16.9382818,30.6236812 14.0868319,29.5010965 11.8877799,27.255927" id="Fill-7"></path>
                    <path d="M47.0061319,25.4861907 C48.7127848,25.4861907 50.1825403,24.859517 51.412918,23.6074033 C52.6420553,22.3552895 53.2572442,20.5850598 53.2572442,18.2967139 C53.2572442,16.0083681 52.6494971,14.24554 51.4340031,13.0082296 C50.218509,11.7709192 48.7499938,11.1516471 47.0284573,11.1516471 C45.3056805,11.1516471 43.8520488,11.7709192 42.6650817,13.0082296 C41.4781145,14.24554 40.8852511,16.0157698 40.8852511,18.3189189 C40.8852511,20.622068 41.4781145,22.3922978 42.6650817,23.6296082 C43.8520488,24.8669187 45.2982387,25.4861907 47.0061319,25.4861907 M38.1938,27.2132441 C35.8496329,24.9397016 34.6775493,21.9605345 34.6775493,18.2757426 C34.6775493,14.5909507 35.8645165,11.6265868 38.2372105,9.38141737 C40.6099045,7.1362479 43.5556171,6.01366316 47.0718678,6.01366316 C50.5881184,6.01366316 53.5325908,7.1362479 55.9052848,9.38141737 C58.2779788,11.6265868 59.4649459,14.5909507 59.4649459,18.2757426 C59.4649459,21.9605345 58.2717773,24.9397016 55.8841997,27.2132441 C53.4953818,29.4867866 50.5372661,30.6241747 47.0061319,30.6241747 C43.4749976,30.6241747 40.5379671,29.4867866 38.1938,27.2132441" id="Fill-9"></path>
                    <path d="M70.447803,6.3585804 L70.447803,10.5898613 C72.0688751,7.53914479 74.4118019,6.01316972 77.4803043,6.01316972 L77.4803043,12.2305621 L75.9609367,12.2305621 C74.1376956,12.2305621 72.7622029,12.6832968 71.836939,13.5912335 C70.9104349,14.4979365 70.447803,16.0596863 70.447803,18.2752491 L70.447803,30.2782705 L64.3269222,30.2782705 L64.3269222,6.3585804 L70.447803,6.3585804 Z" id="Fill-11"></path>
                    <path d="M98.7293729,23.4569029 C99.9882775,22.1899858 100.61711,20.4629324 100.61711,18.2757426 C100.61711,16.0885528 99.9882775,14.375069 98.7293729,13.1377586 C97.4704684,11.9004482 95.9870695,11.2811762 94.2804166,11.2811762 C92.5725234,11.2811762 91.0891246,11.9066162 89.83022,13.15873 C88.5713155,14.4108437 87.9424833,16.1317291 87.9424833,18.3189189 C87.9424833,20.5061087 88.5713155,22.2257605 89.83022,23.4778743 C91.0891246,24.729988 92.5725234,25.3566617 94.2804166,25.3566617 C95.9870695,25.3566617 97.4704684,24.72382 98.7293729,23.4569029 L98.7293729,23.4569029 Z M87.9424833,10.0722387 C89.6491362,7.36693289 92.153302,6.01366316 95.4525002,6.01366316 C98.7516983,6.01366316 101.470436,7.15721926 103.613675,9.44556507 C105.754432,11.7339109 106.826052,14.684705 106.826052,18.2967139 C106.826052,21.9099565 105.754432,24.8669187 103.613675,27.1700678 C101.470436,29.4732169 98.7727834,30.6241747 95.5169958,30.6241747 C92.2612081,30.6241747 89.7359572,29.1709826 87.9424833,26.2633647 L87.9424833,41.6773167 L81.8216025,41.6773167 L81.8216025,6.35907385 L87.9424833,6.35907385 L87.9424833,10.0722387 Z" id="Fill-13"></path>
                    <path d="M120.977255,25.183833 L123.885759,25.183833 L123.885759,30.2786406 L120.022224,30.2786406 C117.562709,30.2786406 115.66629,29.7173483 114.335448,28.5947635 C113.004606,27.4721788 112.338565,25.6155963 112.338565,23.0250162 L112.338565,11.3242291 L109.777346,11.3242291 L109.777346,6.35895049 L112.338565,6.35895049 L112.338565,0.443792457 L118.459446,0.443792457 L118.459446,6.35895049 L123.842348,6.35895049 L123.842348,11.3242291 L118.459446,11.3242291 L118.459446,23.0250162 C118.459446,23.8021902 118.647972,24.3573145 119.023783,24.6866883 C119.399594,25.0185293 120.050751,25.183833 120.977255,25.183833" id="Fill-15"></path>
                    <path d="M143.984573,23.4779976 C145.257121,22.2258839 145.894635,20.5062321 145.894635,18.3190423 C145.894635,16.1318525 145.257121,14.4109671 143.984573,13.1588533 C142.710785,11.9067396 141.219944,11.2812995 139.513291,11.2812995 C137.805398,11.2812995 136.32324,11.9005715 135.064335,13.137882 C133.80419,14.3751924 133.175358,16.0886761 133.175358,18.2758659 C133.175358,20.4630558 133.811632,22.1901092 135.08542,23.4570263 C136.359208,24.7239433 137.841367,25.3555514 139.535617,25.3555514 C141.227386,25.3555514 142.710785,24.7301114 143.984573,23.4779976 M130.202359,27.1479862 C128.045477,24.8312674 126.967656,21.8743051 126.967656,18.2758659 C126.967656,14.6774267 128.038035,11.7340342 130.180034,9.44568843 C132.322032,7.15734262 135.04201,6.01378652 138.341208,6.01378652 C141.640406,6.01378652 144.158215,7.36705625 145.894635,10.0723621 L145.894635,6.35919721 L151.972106,6.35919721 L151.972106,30.2788873 L145.894635,30.2788873 L145.894635,26.2634881 C144.071394,29.1711059 141.538701,30.6230644 138.297797,30.6230644 C135.055653,30.6230644 132.35676,29.4659386 130.202359,27.1479862" id="Fill-17"></path>
                    <path d="M175.391823,23.4569029 C176.650728,22.1899858 177.27956,20.4629324 177.27956,18.2757426 C177.27956,16.0885528 176.650728,14.375069 175.391823,13.1377586 C174.132919,11.9004482 172.64952,11.2811762 170.942867,11.2811762 C169.234974,11.2811762 167.751575,11.9066162 166.49267,13.15873 C165.233766,14.4108437 164.604934,16.1317291 164.604934,18.3189189 C164.604934,20.5061087 165.233766,22.2257605 166.49267,23.4778743 C167.751575,24.729988 169.234974,25.3566617 170.942867,25.3566617 C172.64952,25.3566617 174.132919,24.72382 175.391823,23.4569029 L175.391823,23.4569029 Z M164.604934,10.0722387 C166.311587,7.36693289 168.815752,6.01366316 172.114951,6.01366316 C175.414149,6.01366316 178.132886,7.15721926 180.276125,9.44556507 C182.416883,11.7339109 183.488502,14.684705 183.488502,18.2967139 C183.488502,21.9099565 182.416883,24.8669187 180.276125,27.1700678 C178.132886,29.4732169 175.435234,30.6241747 172.179446,30.6241747 C168.923659,30.6241747 166.398408,29.1709826 164.604934,26.2633647 L164.604934,41.6773167 L158.484053,41.6773167 L158.484053,6.35907385 L164.604934,6.35907385 L164.604934,10.0722387 Z" id="Fill-19"></path>
                    <path d="M202.480349,12.5760961 C201.395086,11.6262168 200.085329,11.1512771 198.551078,11.1512771 C197.016827,11.1512771 195.736837,11.6262168 194.709869,12.5760961 C193.68166,13.5259755 193.066471,14.7928926 192.864302,16.3756137 L204.237854,16.3756137 C204.151033,14.7928926 203.565611,13.5259755 202.480349,12.5760961 M198.464257,30.6238046 C194.96289,30.6238046 192.11144,29.4950518 189.912388,27.235079 C187.713336,24.9751062 186.61319,21.9885374 186.61319,18.2753725 C186.61319,14.5622076 187.720778,11.5904421 189.934714,9.36007592 C192.148649,7.12847616 195.013742,6.01329308 198.529993,6.01329308 C202.046244,6.01329308 204.932422,7.10010313 207.189768,9.27372325 C209.447114,11.4461098 210.575787,14.3463259 210.575787,17.9731381 C210.575787,18.8082918 210.517493,19.5854659 210.402145,20.3046603 L192.864302,20.3046603 C193.009417,21.8590084 193.587397,23.1111221 194.600722,24.0610015 C195.614048,25.0108809 196.901479,25.4858206 198.464257,25.4858206 C200.576488,25.4858206 202.139266,24.6222939 203.152591,22.8952404 L209.750988,22.8952404 C209.05642,25.1687829 207.710694,27.0253654 205.713811,28.4649878 C203.716928,29.9046102 201.300823,30.6238046 198.464257,30.6238046" id="Fill-21"></path>
                </g>
            </g>
        </g>
    </g>
</svg>